<?xml version="1.0" encoding="iso-8859-1"?>
<!-- Generator: Adobe Illustrator 18.0.0, SVG Export Plug-In . SVG Version: 6.00 Build 0)  -->
<!DOCTYPE svg PUBLIC "-//W3C//DTD SVG 1.0//EN" "http://www.w3.org/TR/2001/REC-SVG-20010904/DTD/svg10.dtd">
<svg version="1.0" id="Layer_2" xmlns="http://www.w3.org/2000/svg" xmlns:xlink="http://www.w3.org/1999/xlink" x="0px" y="0px"
	 viewBox="0 0 1920 1080" style="enable-background:new 0 0 1920 1080;" xml:space="preserve">
<polygon style="fill:#FFFFFF;" points="598.881,355.585 644.236,355.585 685.419,635.881 701.384,635.881 701.384,414.366 
	758.35,406.383 758.35,432.871 740.934,434.504 734.584,692.847 652.219,672.165 "/>
<polygon style="fill:#FFFFFF;" points="785.564,430.512 785.564,400.759 859.221,392.414 859.221,430.512 "/>
<polygon style="fill:#FFFFFF;" points="771.413,456.637 809.33,456.637 822.392,672.165 771.413,672.165 "/>
<polygon style="fill:#FFFFFF;" points="840.171,456.637 875.911,456.637 888.974,590.707 906.753,590.707 913.828,411.463 
	980.41,399.489 976.781,426.158 950.657,425.251 937.232,631.89 855.592,631.89 "/>
<path style="fill:#FFFFFF;" d="M1066.948,437.225l-86.719,15.784L970.25,661.28h-24.492v26.85l64.949-6.35v-96.516l30.116,0.726
	l7.801,111.574l38.099-4.717L1066.948,437.225z M1007.623,545.533v-63.316h27.757l6.35,63.316H1007.623z"/>
<polygon style="fill:#FFFFFF;" points="1098.696,376.993 1146.229,365.926 1146.229,647.673 1226.054,643.864 1226.054,682.506 
	1120.83,682.506 "/>
<polygon style="fill:#FFFFFF;" points="1196.845,377.719 1190.495,355.585 1254.537,334.178 1264.152,377.719 "/>
<path style="fill:#FFFFFF;" d="M1264.152,415.817l-85.449-10.341v204.28h42.634l-3.991-64.042h37.917l28.483,184.505l37.191-19.049
	L1264.152,415.817z M1213.536,507.616v-61.683h27.757l8.708,61.683H1213.536z"/>
<g>
	<g>
		<path style="fill:#FFFFFF;" d="M603.076,275.773h6.132v-55.109h-6.132V275.773z M701.508,270.357h-1.672l-21.104-49.694h-11.468
			v55.109h6.132v-49.694h1.513l21.423,49.694h11.229v-55.109h-6.052V270.357z M794.763,249.691
			c-2.337-1.991-6.305-3.61-11.906-4.858c-5.602-1.247-9.318-2.495-11.149-3.743c-1.832-1.247-2.748-3.544-2.748-6.889
			c0-5.999,3.982-8.999,11.946-8.999c3.078,0,8.308,0.452,15.689,1.354l0.557-5.176l-2.708-0.398
			c-5.415-0.796-10.062-1.195-13.937-1.195c-11.84,0-17.759,4.938-17.759,14.813c0,4.938,1.3,8.455,3.902,10.552
			c2.601,2.098,7.008,3.81,13.22,5.137c4.724,0.904,7.95,2.005,9.676,3.305c1.725,1.302,2.588,3.438,2.588,6.411
			c0,7.38-3.93,11.07-11.786,11.07c-3.77,0-9.266-0.478-16.485-1.433l-0.637,5.097l2.867,0.398
			c5.839,0.902,10.697,1.354,14.574,1.354c11.733,0,17.6-5.654,17.6-16.963C798.267,254.961,797.099,251.682,794.763,249.691z
			 M847.722,226.159h16.963v49.614h6.052v-49.614h16.804v-5.495h-39.819V226.159z M939.941,275.773h6.132v-55.109h-6.132V275.773z
			 M998.394,226.159h16.963v49.614h6.052v-49.614h16.804v-5.495h-39.819V226.159z M1122.708,259.208
			c0,4.195-1.128,7.235-3.385,9.119c-2.257,1.885-5.615,2.827-10.074,2.827c-8.601,0-12.901-3.982-12.901-11.946v-38.545h-6.132
			v38.385c0,6.16,1.605,10.619,4.818,13.379c3.212,2.761,8.004,4.141,14.375,4.141c6.371,0,11.189-1.38,14.454-4.141
			c3.265-2.76,4.898-7.22,4.898-13.379v-38.385h-6.052V259.208z M1180.763,226.159h16.963v49.614h6.052v-49.614h16.804v-5.495
			h-39.819V226.159z M1307.905,226.875c-3.213-4.671-8.88-7.008-17.003-7.008s-13.777,2.349-16.963,7.048
			s-4.778,11.893-4.778,21.582c0,9.69,1.565,16.791,4.699,21.303c3.132,4.513,8.826,6.769,17.082,6.769
			c8.255,0,13.949-2.202,17.082-6.61c3.132-4.406,4.699-11.52,4.699-21.343C1312.723,238.795,1311.116,231.548,1307.905,226.875z
			 M1303.206,265.977c-2.098,3.452-6.186,5.176-12.264,5.176c-6.08,0-10.181-1.764-12.304-5.296
			c-2.124-3.53-3.186-9.33-3.186-17.401c0-8.07,1.075-13.949,3.225-17.64c2.15-3.69,6.212-5.535,12.185-5.535
			c5.973,0,10.047,1.859,12.224,5.575c2.176,3.717,3.265,9.636,3.265,17.759S1305.303,262.527,1303.206,265.977z"/>
	</g>
</g>
</svg>
