<?xml version="1.0" encoding="utf-8"?>
<!-- Generator: Adobe Illustrator 21.0.0, SVG Export Plug-In . SVG Version: 6.00 Build 0)  -->
<svg version="1.1" id="Layer_2" xmlns="http://www.w3.org/2000/svg" xmlns:xlink="http://www.w3.org/1999/xlink" x="0px" y="0px"
	 viewBox="0 0 841.9 595.3" style="enable-background:new 0 0 841.9 595.3;" xml:space="preserve">
<style type="text/css">
	.st0{fill:#FFFFFF;}
</style>
<polygon class="st0" points="221.9,196 246.9,196 269.6,350.5 278.4,350.5 278.4,228.4 309.8,224 309.8,238.6 300.2,239.5 
	296.7,381.9 251.3,370.5 "/>
<polygon class="st0" points="324.8,237.3 324.8,220.9 365.4,216.3 365.4,237.3 "/>
<polygon class="st0" points="317,251.7 337.9,251.7 345.1,370.5 317,370.5 "/>
<polygon class="st0" points="354.9,251.7 374.6,251.7 381.8,325.6 391.6,325.6 395.5,226.8 432.2,220.2 430.2,234.9 415.8,234.4 
	408.4,348.3 363.4,348.3 "/>
<path class="st0" d="M479.9,241l-47.8,8.7l-5.5,114.8h-13.5v14.8l35.8-3.5v-53.2l16.6,0.4l4.3,61.5l21-2.6L479.9,241z M447.2,300.7
	v-34.9h15.3l3.5,34.9H447.2z"/>
<polygon class="st0" points="497.4,207.8 523.6,201.7 523.6,357 567.6,354.9 567.6,376.2 509.6,376.2 "/>
<polygon class="st0" points="551.5,208.2 548,196 583.3,184.2 588.6,208.2 "/>
<path class="st0" d="M588.6,229.2l-47.1-5.7v112.6H565l-2.2-35.3h20.9l15.7,101.7l20.5-10.5L588.6,229.2z M560.7,279.8v-34h15.3
	l4.8,34H560.7z"/>
</svg>
