<?xml version="1.0" encoding="iso-8859-1"?>
<!-- Generator: Adobe Illustrator 18.0.0, SVG Export Plug-In . SVG Version: 6.00 Build 0)  -->
<!DOCTYPE svg PUBLIC "-//W3C//DTD SVG 1.0//EN" "http://www.w3.org/TR/2001/REC-SVG-20010904/DTD/svg10.dtd">
<svg version="1.0" id="Layer_1" xmlns="http://www.w3.org/2000/svg" xmlns:xlink="http://www.w3.org/1999/xlink" x="0px" y="0px"
	 viewBox="0 0 110 110" style="enable-background:new 0 0 110 110;" xml:space="preserve">
<g>
	<path style="fill:#FFFFFF;" d="M95.75,35.268V15.75H76.233l2.05,2.05H31.718l2.05-2.05H14.25v19.518l3.026-3.026v45.517
		l-3.026-3.026V94.25h19.518l-2.065-2.065h13.3l0.041,0.091l18.988,0.043l0.059-0.134h14.207l-2.065,2.065H95.75V74.732
		l-4.089,4.089V31.178L95.75,35.268z M93.25,18.25v10.982L82.268,18.25H93.25z M16.75,18.25h10.982L16.75,29.232V18.25z
		 M16.75,91.75V80.768L27.733,91.75H16.75z M46.62,89.684l-8.526-18.98l8.471-8.471l15.74-0.003l8.543,8.544l-8.385,18.911H46.62z
		 M93.25,91.75H82.268L93.25,80.768V91.75z M89.16,81.322l-8.362,8.363H65.199l8.631-19.465L63.341,59.73L45.53,59.733
		L35.107,70.156l8.773,19.528H29.202l-9.426-9.426V29.741l9.441-9.441h51.565l8.378,8.378V81.322z"/>
	<path style="fill:#FFFFFF;" d="M79.941,51.027c-1.48,0-2.868,0.573-3.909,1.614l-0.165,0.165l-0.262-0.262
		c-0.977-0.977-2.303-1.514-3.735-1.514c-1.5,0-2.963,0.6-4.023,1.651l-0.013,0.013c-2.154,2.167-2.203,5.633-0.107,7.729
		l6.292,6.292c0.494,0.494,1.15,0.765,1.849,0.765c0.698,0,1.354-0.272,1.848-0.766l6.168-6.168
		c1.048-1.048,1.625-2.445,1.625-3.935c0-1.49-0.577-2.887-1.66-3.969C82.809,51.6,81.421,51.027,79.941,51.027z M82.117,58.777
		l-6.168,6.168c-0.044,0.045-0.118,0.044-0.162,0l-6.292-6.292c-1.105-1.105-1.052-3.03,0.112-4.198
		c0.591-0.589,1.416-0.927,2.263-0.927c0.764,0,1.463,0.278,1.968,0.782l2.03,2.03l1.933-1.933c0.568-0.568,1.329-0.882,2.141-0.882
		c0.812,0,1.572,0.313,2.175,0.917c0.576,0.575,0.893,1.345,0.893,2.167C83.009,57.432,82.692,58.201,82.117,58.777z"/>
	<path style="fill:#FFFFFF;" d="M54.469,31.874c-7.448,0-13.507,6.059-13.507,13.507s6.059,13.507,13.507,13.507
		s13.507-6.059,13.507-13.507S61.916,31.874,54.469,31.874z M54.469,56.388c-6.069,0-11.007-4.938-11.007-11.007
		s4.938-11.007,11.007-11.007s11.007,4.938,11.007,11.007S60.538,56.388,54.469,56.388z"/>
</g>
<path style="fill:#FFFFFF;" d="M185.199,43.139l-7.975-11.869l-8.933,14.151l-48.206-0.796l30.625,34.103l53.283-6.08l25.92-35.981
	C229.915,36.668,189.844,42.523,185.199,43.139z M191.422,44.801c3.987-0.56,9.298-1.313,14.607-2.069
	c5.056-0.72,10.109-1.441,14.017-2l-26.982,14.114l-6.312-9.394C187.909,45.293,189.511,45.069,191.422,44.801z M190.835,56.011
	l-4.605,2.409l-8.205-1.781l-0.302-20.143L190.835,56.011z M176.727,36.74l0.295,19.681l-11.185-2.427
	C167.912,50.7,173.004,42.636,176.727,36.74z M166.728,47.898l-3.381,5.356c-0.041,0.065-0.073,0.116-0.11,0.176l-27.715-6.015
	L166.728,47.898z M151.709,76.099l-25.222-28.087l57.365,12.449L153.01,75.951L151.709,76.099z M155.893,75.622l29.514-14.823
	l1.178,0.256l0.481-0.252l13.928,9.672L155.893,75.622z M202.612,70.291l-0.112,0.013L188.066,60.28l34.912-18.262L202.612,70.291z"
	/>
<path style="fill:#FFFFFF;" d="M348.75,37.039l-12.073-11.741H241.25v44.003l5.997,5.997h5.068c1.28,5.386,6.127,9.405,11.898,9.405
	c5.771,0,10.619-4.019,11.898-9.405h37.518c1.28,5.386,6.127,9.405,11.898,9.405s10.618-4.019,11.898-9.405h11.323V37.039z
	 M264.214,82.202c-5.366,0-9.732-4.366-9.732-9.732c0-5.366,4.366-9.732,9.732-9.732s9.732,4.366,9.732,9.732
	C273.946,77.837,269.58,82.202,264.214,82.202z M276.438,72.798c0.003-0.109,0.008-0.217,0.008-0.327
	c0-6.745-5.487-12.232-12.232-12.232s-12.232,5.487-12.232,12.232c0,0.11,0.005,0.218,0.008,0.327h-3.708l-4.532-4.533V27.798
	h91.911l1.028,1H246.75v19h54.5v25H276.438z M284.25,45.298v-14h17v14H284.25z M265.25,45.298h-16v-14h16V45.298z M266.25,31.298h17
	v14h-17V31.298z M302.25,31.298h17v14h-17V31.298z M325.529,82.202c-5.366,0-9.732-4.366-9.732-9.732
	c0-5.366,4.366-9.732,9.732-9.732c5.366,0,9.731,4.366,9.731,9.732C335.261,77.837,330.895,82.202,325.529,82.202z M346.25,72.798
	h-8.498c0.003-0.109,0.008-0.217,0.008-0.327c0-6.745-5.487-12.232-12.231-12.232s-12.232,5.487-12.232,12.232
	c0,0.11,0.005,0.218,0.008,0.327H302.25v-25h44V72.798z M346.25,45.298h-0.961l-3.256-3.256l1.874-1.874l-0.707-0.707l-4.797,4.797
	l0.707,0.707l2.216-2.216l2.549,2.549H320.25v-14h19.01l6.99,6.797V45.298z"/>
<g>
	<path style="fill:#FFFFFF;" d="M448.027,69.598h-28.842v-1h29.065v-1.25c0-16.985-12.648-31.037-29.065-33.104v-3.841h2.434
		c1.103,0,2-0.897,2-2s-0.897-2-2-2h-13c-1.103,0-2,0.897-2,2s0.897,2,2,2h2.434v3.81c-16.533,1.961-29.303,16.068-29.303,33.135
		v1.25h29.303v1h-28.667l-6.137,6.157v7.843h77.5v-7.816L448.027,69.598z M407.619,28.402c0-0.552,0.448-1,1-1h13
		c0.552,0,1,0.448,1,1s-0.448,1-1,1h-13C408.068,29.402,407.619,28.954,407.619,28.402z M412.053,30.582h6.132v3.545
		c-1.048-0.1-2.11-0.156-3.185-0.156c-0.994,0-1.975,0.052-2.947,0.138V30.582z M415.119,36.471
		c16.606,0,30.193,13.178,30.851,29.626h-61.703C384.926,49.65,398.513,36.471,415.119,36.471z M412.053,68.598h6.132v1h-6.132
		V68.598z M451.25,81.098h-72.5v-4.31l4.675-4.69h63.51l4.316,4.664V81.098z"/>
	<path style="fill:#FFFFFF;" d="M434.367,47.877c-4.216-4.247-9.617-6.711-15.617-6.711v1c5.5,0,10.88,2.359,14.907,6.415
		c4.001,4.031,6.136,9.016,6.136,15.016h1C440.792,57.598,438.555,52.097,434.367,47.877z"/>
</g>
<path style="fill:#FFFFFF;" d="M574.555,46.548h-6.263l-20.707-21H505.28L494.5,38.963v7.584H483v16.123l9.737,9.755
	c0.111,6.65,5.551,12.026,12.226,12.026c6.296,0,11.495-4.782,12.159-10.905H531.5h1h21.621c0.664,6.123,5.863,10.905,12.159,10.905
	s11.494-4.782,12.158-10.905h6.062h1h1.5v-14.66L574.555,46.548z M564.78,46.548h-5.241l-3.256-3.256l1.874-1.874l-0.707-0.707
	l-4.797,4.797l0.707,0.707l2.216-2.216l2.549,2.549H525v-18.5h21.538L564.78,46.548z M497,39.843l9.478-11.796H522.5v18.5H497
	V39.843z M504.964,81.952c-5.366,0-9.732-4.366-9.732-9.732c0-5.366,4.366-9.732,9.732-9.732c5.366,0,9.732,4.366,9.732,9.732
	C514.696,77.587,510.33,81.952,504.964,81.952z M517.138,71.048c-0.592-6.196-5.826-11.059-12.174-11.059
	c-5.72,0-10.534,3.947-11.865,9.26l-7.599-7.613V49.048h46v22H517.138z M566.279,81.952c-5.366,0-9.732-4.366-9.732-9.732
	c0-5.366,4.366-9.732,9.732-9.732c5.366,0,9.731,4.366,9.731,9.732C576.011,77.587,571.645,81.952,566.279,81.952z M578.453,71.048
	c-0.592-6.196-5.825-11.059-12.174-11.059s-11.582,4.863-12.174,11.059H532.5v-22h41.025L584.5,59.929v11.118H578.453z"/>
<path style="fill:#FFFFFF;" d="M684.351,68.167l-1.049-18.413l18.35-18.583l-93.304-6.809l48.535,61.273l16.333-22.634
	L684.351,68.167z M657.022,46.438l-0.476-4.274l24.276,8.028l0.609,10.695l-3.494-4.427L657.022,46.438z M657.017,81.179
	l-4.645-34.197l21.788,10.44L657.017,81.179z M659.342,40.456l36.716-7.177l-14.38,14.563L659.342,40.456z M692.292,32.996
	l-34.886,6.819l-36.34-12.017L692.292,32.996z M655.502,41.819l0.458,4.11l-26.662-12.775L655.502,41.819z M651.292,46.465
	l4.605,33.902l-40.464-51.084L651.292,46.465z M674.768,60.852l1.697-2.29l4.125,5.106L674.768,60.852z"/>
<path style="fill:#FFFFFF;" d="M811.527,33.582H790.83V21.418h-31.274v12.164h-20.67l-6.137,6.157v42.434l6.121,6.408h72.672
	l5.707-6.435V39.766L811.527,33.582z M746.041,86.082v-50h8.45v6.801l-5.63,2.201l5.63,14.404v26.595H746.041z M752.1,46.502
	l8.103-3.167l5.02,12.843l-8.103,3.167L752.1,46.502z M755.491,62.046l0.21,0.538l12.76-4.988l-6.84-17.5l-6.13,2.396v-6.41h38.975
	v29.089l-13.25,4.108l4.057,13.086l9.193-2.85v6.567h-38.975V62.046z M786.921,79.237l-2.576-8.31l13.171-4.083l2.576,8.31
	L786.921,79.237z M795.466,86.082v-6.877l7.754-2.404l-4.057-13.085l-3.697,1.146V36.082h8.45v50H795.466z M762.056,23.918h26.274
	v9.664h-26.274V23.918z M735.25,81.172V40.772l4.675-4.69h5.116v50h-5.101L735.25,81.172z M814.75,81.198l-4.332,4.884h-5.502v-50
	h5.518l4.316,4.664V81.198z"/>
<g>
	<path style="fill:#FFFFFF;" d="M924.966,17h-55.431v4.5h-4.5V93h55.431v-4.5h4.5V17z M917.965,90.5h-50.431V24h50.431V90.5z
		 M922.466,86h-2V21.5h-48.43v-2h50.431V86z"/>
	<path style="fill:#FFFFFF;" d="M887.271,65h10.5V53.5h11.5V43h-11.5V31.5h-10.5V43h-11.5v10.5h11.5V65z M876.771,52.5V44h11.5V32.5
		h8.5V44h11.5v8.5h-11.5V64h-8.5V52.5H876.771z"/>
	<rect x="876.271" y="70.5" style="fill:#FFFFFF;" width="32.5" height="2.5"/>
	<rect x="876.271" y="76" style="fill:#FFFFFF;" width="32.5" height="2.5"/>
	<rect x="876.271" y="81.5" style="fill:#FFFFFF;" width="32.5" height="2.5"/>
</g>
</svg>
